<svg preserveAspectRatio="none" overflow="visible" style="display: block;" width="28" height="28" viewBox="0 0 28 28" fill="none" xmlns="http://www.w3.org/2000/svg">
<g id="iOS_icon">
<g id="Union">
<path fill-rule="evenodd" clip-rule="evenodd" d="M20.5985 14.6562C22.3709 14.6565 23.897 15.9081 24.2446 17.6461L24.9444 21.1461C25.4043 23.447 23.6447 25.5935 21.2983 25.5938H6.70187C4.35551 25.5935 2.59584 23.447 3.05575 21.1461L3.75558 17.6461C4.1032 15.9081 5.6293 14.6565 7.4017 14.6562H20.5985ZM7.4017 16.8438C6.67204 16.844 6.04348 17.3595 5.90035 18.0751L5.20053 21.5751C5.01134 22.5223 5.73592 23.406 6.70187 23.4062H21.2983C22.2643 23.406 22.9888 22.5223 22.7996 21.5751L22.0998 18.0751C21.9567 17.3595 21.3281 16.844 20.5985 16.8438H7.4017Z" fill="#BABABA"/>
<path fill-rule="evenodd" clip-rule="evenodd" d="M18.5938 7.875C18.5938 10.8953 16.1454 13.3437 13.1251 13.3438C10.1048 13.3438 7.65634 10.8953 7.65634 7.875C7.65634 4.85469 10.1048 2.40625 13.1251 2.40625H18.5938V7.875ZM13.1251 4.59375C11.3129 4.59375 9.84384 6.06282 9.84384 7.875C9.84384 9.68718 11.3129 11.1562 13.1251 11.1562C14.9372 11.1562 16.4063 9.68716 16.4063 7.875V4.59375H13.1251Z" fill="#BABABA"/>
</g>
</g>
</svg>
